<svg width="24" height="24" viewBox="0 0 24 24" fill="none" xmlns="http://www.w3.org/2000/svg">
<path fill-rule="evenodd" clip-rule="evenodd" d="M12 3C9.79086 3 8 4.79086 8 7C8 9.20914 9.79086 11 12 11C14.2091 11 16 9.20914 16 7C16 4.79086 14.2091 3 12 3ZM15.7742 11.6645C17.132 10.5645 18 8.88361 18 7C18 3.68629 15.3137 1 12 1C8.68629 1 6 3.68629 6 7C6 8.88361 6.86797 10.5645 8.22578 11.6645C4.33857 13.0843 1.47727 16.6347 1.05411 20.9027C0.934723 22.1069 1.92503 23 3 23H21C22.075 23 23.0653 22.1069 22.9459 20.9027C22.5227 16.6347 19.6614 13.0843 15.7742 11.6645ZM12 13C7.36764 13 3.55165 16.5005 3.05484 21H20.9452C20.4483 16.5005 16.6324 13 12 13Z" fill="#5C6278"/>
</svg>
