<svg width="24" height="24" viewBox="0 0 24 24" fill="none" xmlns="http://www.w3.org/2000/svg">
<path fill-rule="evenodd" clip-rule="evenodd" d="M22.8029 3.16797C22.7912 2.76053 22.5335 2.40094 22.1514 2.25907L22.1465 2.25734C22.117 2.24676 22.0434 2.22044 21.9998 2.20546C21.9074 2.17368 21.7742 2.12925 21.6043 2.07602C21.2647 1.96961 20.7773 1.82772 20.1744 1.68146C18.9713 1.38957 17.2944 1.07686 15.4051 0.998652C11.647 0.843096 6.88047 1.61464 3.44444 5.53767C0.602094 8.78287 0.173989 13.5515 2.93672 16.9021C2.09186 18.5103 1.42029 20.1956 1.02985 21.7573C0.895901 22.2931 1.22166 22.8361 1.75746 22.97C2.29325 23.104 2.83619 22.7782 2.97013 22.2424C3.28071 21.0001 3.80173 19.6389 4.46675 18.3025C6.22625 19.4619 8.65816 19.8823 10.8881 19.4162C13.6464 18.8398 16.2037 16.8863 16.9785 13.2059C17.7886 9.35785 19.1695 7.06259 20.2933 5.74802C20.8574 5.08822 21.3637 4.66725 21.7139 4.41758C21.8892 4.29259 22.0259 4.21018 22.1117 4.1621C22.1546 4.13806 22.1849 4.12259 22.2008 4.11468L22.2133 4.10864C22.5815 3.94315 22.8144 3.57214 22.8029 3.16797ZM15.3224 2.99694C11.853 2.85334 7.81618 3.58179 4.94895 6.85541C2.83904 9.26437 2.47615 12.5508 4.03381 15.0112C5.29776 13.0325 6.83655 11.2403 8.44529 10.1678C8.90482 9.86144 9.52569 9.98561 9.83204 10.4452C10.1384 10.9047 10.0142 11.5256 9.55469 11.8319C8.21979 12.7218 6.80995 14.3407 5.59799 16.2799C5.54359 16.3669 5.4897 16.4544 5.43635 16.5423C6.68963 17.429 8.62108 17.8468 10.4789 17.4585C12.5479 17.0261 14.4278 15.6135 15.0214 12.7939C15.8955 8.64194 17.4163 6.03552 18.7731 4.44841C19.0529 4.12113 19.3246 3.83855 19.5805 3.59574C18.4779 3.33455 16.9845 3.06574 15.3224 2.99694Z" fill="#5C6278"/>
</svg>
