<svg width="23" height="22" viewBox="0 0 23 22" fill="none" xmlns="http://www.w3.org/2000/svg">
<path fill-rule="evenodd" clip-rule="evenodd" d="M2 3C2 1.34315 3.34315 0 5 0H16C17.6569 0 19 1.34315 19 3V3.41421C19.5118 3.41421 20.0237 3.60948 20.4142 4L22 5.58579C22.781 6.36683 22.7811 7.63316 22 8.41421L19 11.4142V19C19 20.6569 17.6569 22 16 22H5C3.34315 22 2 20.6569 2 19V18H1C0.44772 18 0 17.5523 0 17C0 16.4477 0.44772 16 1 16H2V12H1C0.44772 12 0 11.5523 0 11C0 10.4477 0.44772 10 1 10H2V6H1C0.44772 6 0 5.55228 0 5C0 4.44772 0.44772 4 1 4H2V3ZM4 6C4.55228 6 5 5.55228 5 5C5 4.44772 4.55228 4 4 4V3C4 2.44772 4.44772 2 5 2H16C16.5523 2 17 2.44772 17 3V4.58578L9.5858 12C9.2107 12.3751 9 12.8838 9 13.4142V17H12.5858C13.1162 17 13.6249 16.7893 14 16.4142L17 13.4142V19C17 19.5523 16.5523 20 16 20H5C4.44772 20 4 19.5523 4 19V18C4.55228 18 5 17.5523 5 17C5 16.4477 4.55228 16 4 16V12C4.55228 12 5 11.5523 5 11C5 10.4477 4.55228 10 4 10V6ZM19 5.41421L11 13.4142V15H12.5858L20.5858 7L19 5.41421Z" fill="#5C6278"/>
</svg>
