<svg width="24" height="24" viewBox="0 0 24 24" fill="none" xmlns="http://www.w3.org/2000/svg">
<path fill-rule="evenodd" clip-rule="evenodd" d="M3 4C3 2.34315 4.34315 1 6 1H17C18.6569 1 20 2.34315 20 4V4.41421C20.5118 4.41421 21.0237 4.60948 21.4142 5L23 6.58579C23.781 7.36683 23.7811 8.63316 23 9.41421L20 12.4142V20C20 21.6569 18.6569 23 17 23H6C4.34315 23 3 21.6569 3 20V19H2C1.44772 19 1 18.5523 1 18C1 17.4477 1.44772 17 2 17H3V13H2C1.44772 13 1 12.5523 1 12C1 11.4477 1.44772 11 2 11H3V7H2C1.44772 7 1 6.55228 1 6C1 5.44772 1.44772 5 2 5H3V4ZM5 7C5.55228 7 6 6.55228 6 6C6 5.44772 5.55228 5 5 5V4C5 3.44772 5.44772 3 6 3H17C17.5523 3 18 3.44772 18 4V5.58578L10.5858 13C10.2107 13.3751 10 13.8838 10 14.4142V18H13.5858C14.1162 18 14.6249 17.7893 15 17.4142L18 14.4142V20C18 20.5523 17.5523 21 17 21H6C5.44772 21 5 20.5523 5 20V19C5.55228 19 6 18.5523 6 18C6 17.4477 5.55228 17 5 17V13C5.55228 13 6 12.5523 6 12C6 11.4477 5.55228 11 5 11V7ZM20 6.41421L12 14.4142V16H13.5858L21.5858 8L20 6.41421Z" fill="#5C6278"/>
</svg>
