<svg width="24" height="24" viewBox="0 0 24 24" fill="none" xmlns="http://www.w3.org/2000/svg">
<path fill-rule="evenodd" clip-rule="evenodd" d="M7 1C7.55228 1 8 1.44772 8 2V3H11V2C11 1.44772 11.4477 1 12 1C12.5523 1 13 1.44772 13 2V3H16V2C16 1.44772 16.4477 1 17 1C17.5523 1 18 1.44772 18 2V3H20C21.6569 3 23 4.34315 23 6V20C23 21.6569 21.6569 23 20 23H4C2.34315 23 1 21.6569 1 20V6C1 4.34315 2.34315 3 4 3H6V2C6 1.44772 6.44772 1 7 1ZM6 5H4C3.44772 5 3 5.44772 3 6V20C3 20.5523 3.44772 21 4 21H20C20.5523 21 21 20.5523 21 20V6C21 5.44772 20.5523 5 20 5H18C18 5.55228 17.5523 6 17 6C16.4477 6 16 5.55228 16 5H13C13 5.55228 12.5523 6 12 6C11.4477 6 11 5.55228 11 5H8C8 5.55228 7.55228 6 7 6C6.44772 6 6 5.55228 6 5ZM6 13C6 12.4477 6.44772 12 7 12H12C12.5523 12 13 12.4477 13 13C13 13.5523 12.5523 14 12 14H7C6.44772 14 6 13.5523 6 13Z" fill="#005C69"/>
<path d="M7 16C6.44772 16 6 16.4477 6 17C6 17.5523 6.44772 18 7 18H17C17.5523 18 18 17.5523 18 17C18 16.4477 17.5523 16 17 16H7Z" fill="#005C69"/>
</svg>
