<svg width="24" height="24" viewBox="0 0 24 24" fill="none" xmlns="http://www.w3.org/2000/svg">
<path fill-rule="evenodd" clip-rule="evenodd" d="M1 4C1 2.34315 2.34315 1 4 1H8C9.65685 1 11 2.34315 11 4V5.92905L13.1214 3.80765C14.293 2.63608 16.1925 2.63608 17.364 3.80765L20.1925 6.63608C21.364 7.80765 21.364 9.70714 20.1925 10.8787L18.0712 13H20C21.6569 13 23 14.3431 23 16V20C23 21.6569 21.6569 23 20 23H4C2.34315 23 1 21.6569 1 20V4ZM10.8293 21H20C20.5523 21 21 20.5523 21 20V16C21 15.4477 20.5523 15 20 15H16.0712L10.9992 20.072C10.9915 20.3967 10.9323 20.7087 10.8293 21ZM11 17.2428L18.7783 9.4645C19.1688 9.07398 19.1688 8.44081 18.7783 8.05029L15.9498 5.22186C15.5593 4.83134 14.9261 4.83134 14.5356 5.22186L11 8.75747V17.2428ZM8 21C8.55228 21 9 20.5523 9 20V4C9 3.44772 8.55228 3 8 3H4C3.44772 3 3 3.44772 3 4V20C3 20.5523 3.44772 21 4 21H8ZM6 16C6.55228 16 7 16.4477 7 17V18C7 18.5523 6.55228 19 6 19C5.44772 19 5 18.5523 5 18V17C5 16.4477 5.44772 16 6 16Z" fill="#5C6278"/>
</svg>
